<?xml version="1.0" encoding="UTF-8" standalone="no"?>
<!DOCTYPE svg PUBLIC "-//W3C//DTD SVG 1.1//EN" "http://www.w3.org/Graphics/SVG/1.1/DTD/svg11.dtd">
<svg width="100%" height="100%" viewBox="0 0 1748 1748" version="1.1" xmlns="http://www.w3.org/2000/svg" xmlns:xlink="http://www.w3.org/1999/xlink" xml:space="preserve" xmlns:serif="http://www.serif.com/" style="fill-rule:evenodd;clip-rule:evenodd;stroke-linecap:round;stroke-linejoin:round;">
    <g transform="matrix(3.125,0,0,3.125,0,0)">
        <g transform="matrix(1.01375,0,0,1.01375,-299.88,-3.84401)">
            <g transform="matrix(4.16667,0,0,4.16667,0,-963.625)">
                <rect x="148.436" y="287.443" width="22.491" height="22.49" style="fill:white;stroke:rgb(94,191,64);stroke-width:1.89px;"/>
            </g>
            <g transform="matrix(4.16667,0,0,4.16667,0,-1151.05)">
                <rect x="148.436" y="309.933" width="22.491" height="22.491" style="fill:white;stroke:rgb(94,191,64);stroke-width:1.89px;"/>
            </g>
            <g transform="matrix(4.16667,0,0,4.16667,0,-1151.05)">
                <rect x="170.927" y="309.933" width="22.491" height="22.491" style="fill:white;stroke:rgb(94,191,64);stroke-width:1.89px;"/>
            </g>
            <g transform="matrix(-4.16667,0,0,4.16667,1330.68,-1339.95)">
                <rect x="148.436" y="332.424" width="22.491" height="22.846" style="fill:white;stroke:rgb(94,191,64);stroke-width:1.89px;"/>
            </g>
            <g transform="matrix(4.16667,0,0,4.16667,0,-776.208)">
                <rect x="125.946" y="264.953" width="22.49" height="22.49" style="fill:white;stroke:rgb(94,191,64);stroke-width:1.89px;"/>
            </g>
            <g transform="matrix(-4.16667,0,0,4.16667,1518.1,-1339.95)">
                <rect x="170.926" y="332.424" width="22.491" height="22.846" style="fill:white;stroke:rgb(94,191,64);stroke-width:1.89px;"/>
            </g>
            <g transform="matrix(4.16667,0,0,4.16667,0,-963.625)">
                <rect x="125.946" y="287.443" width="22.49" height="22.49" style="fill:white;stroke:rgb(94,191,64);stroke-width:1.89px;"/>
            </g>
            <g transform="matrix(-4.16667,0,0,4.16667,1143.26,-1151.05)">
                <rect x="125.946" y="309.933" width="22.49" height="22.491" style="fill:rgb(143,217,38);stroke:rgb(94,191,64);stroke-width:1.89px;"/>
            </g>
            <g transform="matrix(4.16667,0,0,4.16667,0,-776.208)">
                <rect x="103.455" y="264.953" width="22.491" height="22.49" style="fill:white;stroke:rgb(94,191,64);stroke-width:1.89px;"/>
            </g>
            <g transform="matrix(-4.16667,0,0,4.16667,955.838,-963.625)">
                <rect x="103.455" y="287.443" width="22.491" height="22.49" style="fill:rgb(143,217,38);stroke:rgb(94,191,64);stroke-width:1.89px;"/>
            </g>
            <g transform="matrix(-4.16667,0,0,4.16667,955.838,-1151.05)">
                <rect x="103.455" y="309.933" width="22.491" height="22.491" style="fill:white;stroke:rgb(94,191,64);stroke-width:1.89px;"/>
            </g>
            <g transform="matrix(4.16667,0,0,4.16667,0,-776.208)">
                <rect x="148.436" y="264.953" width="22.491" height="22.49" style="fill:rgb(143,217,38);stroke:rgb(94,191,64);stroke-width:1.89px;"/>
            </g>
            <g transform="matrix(4.16667,0,0,4.16667,0,-589.904)">
                <rect x="148.436" y="242.73" width="22.491" height="22.223" style="fill:rgb(143,217,38);stroke:rgb(94,191,64);stroke-width:1.89px;"/>
            </g>
            <g transform="matrix(-4.16667,0,0,4.16667,1143.26,-1339.95)">
                <rect x="125.946" y="332.424" width="22.49" height="22.846" style="fill:white;stroke:rgb(94,191,64);stroke-width:1.89px;"/>
            </g>
            <g transform="matrix(4.16667,0,0,4.16667,0,-589.904)">
                <rect x="103.455" y="242.73" width="22.491" height="22.223" style="fill:white;stroke:rgb(94,191,64);stroke-width:1.89px;"/>
            </g>
            <g transform="matrix(4.16667,0,0,4.16667,0,-589.904)">
                <rect x="170.927" y="242.73" width="22.491" height="22.223" style="fill:rgb(143,217,38);stroke:rgb(94,191,64);stroke-width:1.89px;"/>
            </g>
            <g transform="matrix(4.16667,0,0,4.16667,0,-963.625)">
                <rect x="170.927" y="287.443" width="22.491" height="22.49" style="fill:white;stroke:rgb(94,191,64);stroke-width:1.89px;"/>
            </g>
            <g transform="matrix(4.16667,0,0,4.16667,0,-776.208)">
                <rect x="170.927" y="264.953" width="22.491" height="22.49" style="fill:white;stroke:rgb(94,191,64);stroke-width:1.89px;"/>
            </g>
            <g transform="matrix(4.16667,0,0,4.16667,0,-589.904)">
                <rect x="125.946" y="242.73" width="22.49" height="22.223" style="fill:rgb(143,217,38);stroke:rgb(94,191,64);stroke-width:1.89px;"/>
            </g>
            <g transform="matrix(-4.16667,0,0,4.16667,768.413,-1339.95)">
                <rect x="80.964" y="332.424" width="22.491" height="22.846" style="fill:white;stroke:rgb(94,191,64);stroke-width:1.89px;"/>
            </g>
            <g transform="matrix(-4.16667,0,0,4.16667,768.413,-1151.05)">
                <rect x="80.964" y="309.933" width="22.491" height="22.491" style="fill:rgb(143,217,38);stroke:rgb(94,191,64);stroke-width:1.89px;"/>
            </g>
            <g transform="matrix(-4.16667,0,0,4.16667,955.838,-1339.95)">
                <rect x="103.455" y="332.424" width="22.491" height="22.846" style="fill:rgb(143,217,38);stroke:rgb(94,191,64);stroke-width:1.89px;"/>
            </g>
            <g transform="matrix(-4.16667,0,0,4.16667,768.413,-776.208)">
                <rect x="80.964" y="264.953" width="22.491" height="22.49" style="fill:white;stroke:rgb(94,191,64);stroke-width:1.89px;"/>
            </g>
            <g transform="matrix(-4.16667,0,0,4.16667,768.413,-963.625)">
                <rect x="80.964" y="287.443" width="22.491" height="22.49" style="fill:white;stroke:rgb(94,191,64);stroke-width:1.89px;"/>
            </g>
            <g transform="matrix(4.16667,0,0,4.16667,0,-589.904)">
                <rect x="80.964" y="242.73" width="22.491" height="22.223" style="fill:white;stroke:rgb(94,191,64);stroke-width:1.89px;stroke-linecap:butt;stroke-miterlimit:2;"/>
            </g>
        </g>
    </g>
</svg>
