<?xml version="1.0" encoding="UTF-8" standalone="no"?>
<!DOCTYPE svg PUBLIC "-//W3C//DTD SVG 1.1//EN" "http://www.w3.org/Graphics/SVG/1.1/DTD/svg11.dtd">
<svg width="100%" height="100%" viewBox="0 0 1748 1748" version="1.1" xmlns="http://www.w3.org/2000/svg" xmlns:xlink="http://www.w3.org/1999/xlink" xml:space="preserve" xmlns:serif="http://www.serif.com/" style="fill-rule:evenodd;clip-rule:evenodd;stroke-linecap:round;stroke-linejoin:round;">
    <g transform="matrix(3.125,0,0,3.125,0,0)">
        <g transform="matrix(1.27327,0,0,1.27327,-657.314,-76.4085)">
            <g transform="matrix(-4.16667,0,0,4.16667,1188.95,-2323.55)">
                <rect x="134.191" y="582.33" width="16.965" height="16.965" style="fill:rgb(237,28,36);stroke:rgb(35,31,32);stroke-width:1.51px;"/>
            </g>
            <g transform="matrix(-4.16667,0,0,4.16667,1330.32,-2323.55)">
                <rect x="151.155" y="582.33" width="16.966" height="16.965" style="fill:white;stroke:rgb(35,31,32);stroke-width:1.51px;"/>
            </g>
            <g transform="matrix(-4.16667,0,0,4.16667,1471.68,-2323.55)">
                <rect x="168.118" y="582.33" width="16.966" height="16.965" style="fill:white;stroke:rgb(35,31,32);stroke-width:1.51px;"/>
            </g>
            <g transform="matrix(-4.16667,0,0,4.16667,1613.05,-2323.55)">
                <rect x="185.082" y="582.33" width="16.967" height="16.965" style="fill:rgb(237,28,36);stroke:rgb(35,31,32);stroke-width:1.51px;"/>
            </g>
            <g transform="matrix(-4.16667,0,0,4.16667,1754.41,-2323.55)">
                <rect x="202.047" y="582.33" width="16.965" height="16.965" style="fill:white;stroke:rgb(35,31,32);stroke-width:1.51px;"/>
            </g>
            <g transform="matrix(-4.16667,0,0,4.16667,1188.95,-2182.12)">
                <rect x="134.191" y="565.357" width="16.965" height="16.967" style="fill:rgb(237,28,36);stroke:rgb(35,31,32);stroke-width:1.51px;"/>
            </g>
            <g transform="matrix(-4.16667,0,0,4.16667,1330.32,-2182.12)">
                <rect x="151.155" y="565.357" width="16.966" height="16.967" style="fill:white;stroke:rgb(35,31,32);stroke-width:1.51px;"/>
            </g>
            <g transform="matrix(-4.16667,0,0,4.16667,1471.68,-2182.12)">
                <rect x="168.118" y="565.357" width="16.966" height="16.967" style="fill:white;stroke:rgb(35,31,32);stroke-width:1.51px;"/>
            </g>
            <g transform="matrix(-4.16667,0,0,4.16667,1613.05,-2182.12)">
                <rect x="185.082" y="565.357" width="16.967" height="16.967" style="fill:rgb(237,28,36);stroke:rgb(35,31,32);stroke-width:1.51px;"/>
            </g>
            <g transform="matrix(-4.16667,0,0,4.16667,1754.41,-2182.12)">
                <rect x="202.047" y="565.357" width="16.965" height="16.967" style="fill:white;stroke:rgb(35,31,32);stroke-width:1.51px;"/>
            </g>
            <g transform="matrix(-4.16667,0,0,4.16667,1188.95,-2040.68)">
                <rect x="134.191" y="548.385" width="16.965" height="16.965" style="fill:rgb(237,28,36);stroke:rgb(35,31,32);stroke-width:1.51px;"/>
            </g>
            <g transform="matrix(-4.16667,0,0,4.16667,1330.32,-2040.68)">
                <rect x="151.155" y="548.385" width="16.966" height="16.965" style="fill:rgb(237,28,36);stroke:rgb(35,31,32);stroke-width:1.51px;"/>
            </g>
            <g transform="matrix(-4.16667,0,0,4.16667,1471.68,-2040.68)">
                <rect x="168.118" y="548.385" width="16.966" height="16.965" style="fill:rgb(237,28,36);stroke:rgb(35,31,32);stroke-width:1.51px;"/>
            </g>
            <g transform="matrix(-4.16667,0,0,4.16667,1613.05,-2040.68)">
                <rect x="185.082" y="548.385" width="16.967" height="16.965" style="fill:rgb(237,28,36);stroke:rgb(35,31,32);stroke-width:1.51px;"/>
            </g>
            <g transform="matrix(-4.16667,0,0,4.16667,1754.41,-2040.68)">
                <rect x="202.047" y="548.385" width="16.965" height="16.965" style="fill:rgb(237,28,36);stroke:rgb(35,31,32);stroke-width:1.51px;"/>
            </g>
            <g transform="matrix(-4.16667,0,0,4.16667,1188.95,-1899.23)">
                <rect x="134.191" y="531.411" width="16.965" height="16.966" style="fill:white;stroke:rgb(35,31,32);stroke-width:1.51px;"/>
            </g>
            <g transform="matrix(-4.16667,0,0,4.16667,1330.32,-1899.23)">
                <rect x="151.155" y="531.411" width="16.966" height="16.966" style="fill:white;stroke:rgb(35,31,32);stroke-width:1.51px;"/>
            </g>
            <g transform="matrix(-4.16667,0,0,4.16667,1471.68,-1899.23)">
                <rect x="168.118" y="531.411" width="16.966" height="16.966" style="fill:white;stroke:rgb(35,31,32);stroke-width:1.51px;"/>
            </g>
            <g transform="matrix(-4.16667,0,0,4.16667,1613.05,-1899.23)">
                <rect x="185.082" y="531.411" width="16.967" height="16.966" style="fill:rgb(237,28,36);stroke:rgb(35,31,32);stroke-width:1.51px;"/>
            </g>
            <g transform="matrix(-4.16667,0,0,4.16667,1754.41,-1899.23)">
                <rect x="202.047" y="531.411" width="16.965" height="16.966" style="fill:white;stroke:rgb(35,31,32);stroke-width:1.51px;"/>
            </g>
            <g transform="matrix(-4.16667,0,0,4.16667,1188.95,-1757.79)">
                <rect x="134.191" y="514.439" width="16.965" height="16.965" style="fill:white;stroke:rgb(35,31,32);stroke-width:1.51px;"/>
            </g>
            <g transform="matrix(-4.16667,0,0,4.16667,1330.32,-1757.79)">
                <rect x="151.155" y="514.439" width="16.966" height="16.965" style="fill:white;stroke:rgb(35,31,32);stroke-width:1.51px;"/>
            </g>
            <g transform="matrix(-4.16667,0,0,4.16667,1471.68,-1757.79)">
                <rect x="168.118" y="514.439" width="16.966" height="16.965" style="fill:white;stroke:rgb(35,31,32);stroke-width:1.51px;"/>
            </g>
            <g transform="matrix(-4.16667,0,0,4.16667,1613.05,-1757.79)">
                <rect x="185.082" y="514.439" width="16.967" height="16.965" style="fill:rgb(237,28,36);stroke:rgb(35,31,32);stroke-width:1.51px;"/>
            </g>
            <g transform="matrix(-4.16667,0,0,4.16667,1754.41,-1757.79)">
                <rect x="202.047" y="514.439" width="16.965" height="16.965" style="fill:white;stroke:rgb(35,31,32);stroke-width:1.51px;"/>
            </g>
        </g>
    </g>
</svg>
