<?xml version="1.0" encoding="UTF-8" standalone="no"?>
<!DOCTYPE svg PUBLIC "-//W3C//DTD SVG 1.1//EN" "http://www.w3.org/Graphics/SVG/1.1/DTD/svg11.dtd">
<svg width="100%" height="100%" viewBox="0 0 1748 1748" version="1.1" xmlns="http://www.w3.org/2000/svg" xmlns:xlink="http://www.w3.org/1999/xlink" xml:space="preserve" xmlns:serif="http://www.serif.com/" style="fill-rule:evenodd;clip-rule:evenodd;stroke-linecap:round;stroke-linejoin:round;">
    <g transform="matrix(3.125,0,0,3.125,0,0)">
        <g transform="matrix(0.634999,0,0,0.634999,-226.119,102.057)">
            <g transform="matrix(-4.16667,0,0,4.16667,1592.85,-1758.82)">
                <rect x="106.102" y="404.115" width="170.079" height="170.078" style="fill:none;stroke:rgb(109,207,246);stroke-width:3.02px;"/>
            </g>
            <g transform="matrix(4.16667,0,0,4.16667,560.2,634.227)">
                <path d="M0,-170.026L0,0M28.347,-170.026L28.347,0M56.693,-170.026L56.693,0M85.04,-170.026L85.04,0M113.386,-170.026L113.386,0M-28.32,-28.321L141.706,-28.321M-28.32,-56.666L141.706,-56.666M-28.32,-85.014L141.706,-85.014M-28.32,-113.36L141.706,-113.36M-28.32,-141.706L141.706,-141.706" style="fill:none;fill-rule:nonzero;stroke:rgb(109,207,246);stroke-width:2.52px;stroke-dasharray:7.56,8.82;"/>
            </g>
            <g transform="matrix(4.16667,0,0,4.16667,0,-1757.45)">
                <path d="M247.834,545.682L191.141,545.682L191.141,432.297L247.834,432.297L247.834,545.682ZM191.142,545.682L134.449,545.682L134.449,517.337L191.142,517.337L191.142,545.682ZM191.142,488.99C191.142,504.645 178.45,517.337 162.795,517.337C147.14,517.337 134.449,504.645 134.449,488.99C134.449,473.335 147.14,460.643 162.795,460.643C178.45,460.643 191.142,473.335 191.142,488.99Z" style="fill:none;fill-rule:nonzero;stroke:rgb(163,35,142);stroke-width:4.03px;"/>
            </g>
        </g>
    </g>
</svg>
